<svg xmlns="http://www.w3.org/2000/svg" xmlns:xlink="http://www.w3.org/1999/xlink" width="80" zoomAndPan="magnify" viewBox="0 0 60 30.000001" height="40" preserveAspectRatio="xMidYMid meet" version="1.0"><defs><g/></defs><g fill="#df0016" fill-opacity="1"><g transform="translate(6.697493, 18.145163)"><g><path d="M 2.078125 3.1875 C 1.722656 3.1875 1.429688 3.066406 1.203125 2.828125 C 1.085938 2.703125 0.992188 2.5625 0.921875 2.40625 C 0.859375 2.25 0.828125 2.082031 0.828125 1.90625 L 0.828125 -4.46875 C 0.828125 -5.0625 0.945312 -5.628906 1.1875 -6.171875 C 1.425781 -6.710938 1.753906 -7.1875 2.171875 -7.59375 C 2.585938 -8 3.066406 -8.316406 3.609375 -8.546875 C 4.160156 -8.785156 4.734375 -8.90625 5.328125 -8.90625 C 5.929688 -8.90625 6.507812 -8.785156 7.0625 -8.546875 C 7.613281 -8.316406 8.09375 -7.992188 8.5 -7.578125 C 8.914062 -7.160156 9.238281 -6.675781 9.46875 -6.125 C 9.707031 -5.570312 9.828125 -4.992188 9.828125 -4.390625 C 9.828125 -3.785156 9.707031 -3.207031 9.46875 -2.65625 C 9.238281 -2.113281 8.914062 -1.632812 8.5 -1.21875 C 8.09375 -0.800781 7.613281 -0.476562 7.0625 -0.25 C 6.507812 -0.0195312 5.929688 0.09375 5.328125 0.09375 C 4.609375 0.09375 3.925781 -0.0664062 3.28125 -0.390625 L 3.28125 1.90625 C 3.28125 2.28125 3.164062 2.585938 2.9375 2.828125 C 2.707031 3.066406 2.421875 3.1875 2.078125 3.1875 Z M 5.328125 -2.359375 C 5.609375 -2.359375 5.875 -2.410156 6.125 -2.515625 C 6.375 -2.617188 6.585938 -2.765625 6.765625 -2.953125 C 6.960938 -3.140625 7.113281 -3.351562 7.21875 -3.59375 C 7.320312 -3.84375 7.375 -4.109375 7.375 -4.390625 C 7.375 -4.671875 7.320312 -4.929688 7.21875 -5.171875 C 7.113281 -5.421875 6.960938 -5.640625 6.765625 -5.828125 C 6.585938 -6.015625 6.375 -6.160156 6.125 -6.265625 C 5.875 -6.367188 5.609375 -6.421875 5.328125 -6.421875 C 5.054688 -6.421875 4.796875 -6.367188 4.546875 -6.265625 C 4.296875 -6.160156 4.078125 -6.015625 3.890625 -5.828125 C 3.703125 -5.640625 3.550781 -5.421875 3.4375 -5.171875 C 3.332031 -4.929688 3.28125 -4.671875 3.28125 -4.390625 C 3.28125 -4.109375 3.332031 -3.84375 3.4375 -3.59375 C 3.550781 -3.351562 3.703125 -3.140625 3.890625 -2.953125 C 4.078125 -2.765625 4.296875 -2.617188 4.546875 -2.515625 C 4.796875 -2.410156 5.054688 -2.359375 5.328125 -2.359375 Z M 5.328125 -2.359375 "/></g></g></g><g fill="#df0016" fill-opacity="1"><g transform="translate(16.015815, 18.145163)"><g><path d="M 2.078125 0 C 1.722656 0 1.429688 -0.113281 1.203125 -0.34375 C 1.085938 -0.457031 0.992188 -0.585938 0.921875 -0.734375 C 0.859375 -0.878906 0.828125 -1.035156 0.828125 -1.203125 L 0.828125 -4.3125 C 0.835938 -4.925781 0.96875 -5.507812 1.21875 -6.0625 C 1.46875 -6.625 1.804688 -7.113281 2.234375 -7.53125 C 2.660156 -7.945312 3.148438 -8.273438 3.703125 -8.515625 C 4.265625 -8.753906 4.859375 -8.882812 5.484375 -8.90625 L 5.546875 -8.90625 C 5.953125 -8.90625 6.265625 -8.789062 6.484375 -8.5625 C 6.710938 -8.34375 6.828125 -8.050781 6.828125 -7.6875 C 6.828125 -7.34375 6.703125 -7.050781 6.453125 -6.8125 C 6.210938 -6.570312 5.910156 -6.453125 5.546875 -6.453125 L 5.5 -6.453125 C 5.195312 -6.453125 4.910156 -6.390625 4.640625 -6.265625 C 4.378906 -6.148438 4.148438 -5.988281 3.953125 -5.78125 C 3.742188 -5.570312 3.578125 -5.332031 3.453125 -5.0625 C 3.335938 -4.789062 3.28125 -4.503906 3.28125 -4.203125 L 3.28125 -1.203125 C 3.28125 -0.859375 3.160156 -0.570312 2.921875 -0.34375 C 2.691406 -0.113281 2.410156 0 2.078125 0 Z M 2.078125 0 "/></g></g></g><g fill="#df0016" fill-opacity="1"><g transform="translate(21.848967, 18.145163)"><g><path d="M 4.90625 0.09375 C 4.300781 0.09375 3.722656 -0.0195312 3.171875 -0.25 C 2.628906 -0.476562 2.148438 -0.800781 1.734375 -1.21875 C 1.316406 -1.625 0.988281 -2.101562 0.75 -2.65625 C 0.519531 -3.207031 0.40625 -3.785156 0.40625 -4.390625 C 0.40625 -4.992188 0.519531 -5.570312 0.75 -6.125 C 0.988281 -6.675781 1.316406 -7.160156 1.734375 -7.578125 C 2.148438 -7.992188 2.628906 -8.316406 3.171875 -8.546875 C 3.722656 -8.785156 4.300781 -8.90625 4.90625 -8.90625 C 5.507812 -8.90625 6.085938 -8.785156 6.640625 -8.546875 C 7.191406 -8.316406 7.675781 -7.992188 8.09375 -7.578125 C 8.5 -7.160156 8.816406 -6.675781 9.046875 -6.125 C 9.285156 -5.570312 9.40625 -4.992188 9.40625 -4.390625 C 9.40625 -3.785156 9.289062 -3.207031 9.0625 -2.65625 C 8.832031 -2.113281 8.507812 -1.632812 8.09375 -1.21875 C 7.675781 -0.800781 7.191406 -0.476562 6.640625 -0.25 C 6.085938 -0.0195312 5.507812 0.09375 4.90625 0.09375 Z M 4.90625 -2.359375 C 5.1875 -2.359375 5.453125 -2.410156 5.703125 -2.515625 C 5.953125 -2.617188 6.171875 -2.765625 6.359375 -2.953125 C 6.546875 -3.140625 6.691406 -3.351562 6.796875 -3.59375 C 6.898438 -3.84375 6.953125 -4.109375 6.953125 -4.390625 C 6.953125 -4.671875 6.898438 -4.929688 6.796875 -5.171875 C 6.691406 -5.421875 6.546875 -5.640625 6.359375 -5.828125 C 6.171875 -6.015625 5.953125 -6.160156 5.703125 -6.265625 C 5.453125 -6.367188 5.1875 -6.421875 4.90625 -6.421875 C 4.632812 -6.421875 4.375 -6.367188 4.125 -6.265625 C 3.875 -6.160156 3.660156 -6.015625 3.484375 -5.828125 C 3.285156 -5.640625 3.132812 -5.421875 3.03125 -5.171875 C 2.925781 -4.929688 2.875 -4.671875 2.875 -4.390625 C 2.875 -4.109375 2.925781 -3.84375 3.03125 -3.59375 C 3.132812 -3.351562 3.285156 -3.140625 3.484375 -2.953125 C 3.660156 -2.765625 3.875 -2.617188 4.125 -2.515625 C 4.375 -2.410156 4.632812 -2.359375 4.90625 -2.359375 Z M 4.90625 -2.359375 "/></g></g></g><g fill="#000000" fill-opacity="1"><g transform="translate(30.569721, 18.145163)"><g><path d="M 5.328125 0.109375 C 4.710938 0.109375 4.128906 -0.00390625 3.578125 -0.234375 C 3.035156 -0.472656 2.554688 -0.796875 2.140625 -1.203125 C 1.722656 -1.617188 1.398438 -2.101562 1.171875 -2.65625 C 0.941406 -3.207031 0.828125 -3.785156 0.828125 -4.390625 L 0.828125 -10.359375 C 0.828125 -10.703125 0.945312 -11 1.1875 -11.25 C 1.300781 -11.351562 1.429688 -11.4375 1.578125 -11.5 C 1.734375 -11.570312 1.894531 -11.609375 2.0625 -11.609375 C 2.226562 -11.609375 2.390625 -11.570312 2.546875 -11.5 C 2.703125 -11.4375 2.835938 -11.351562 2.953125 -11.25 C 3.066406 -11.125 3.160156 -10.984375 3.234375 -10.828125 C 3.304688 -10.679688 3.34375 -10.523438 3.34375 -10.359375 L 3.34375 -9.171875 L 6.171875 -9.171875 C 6.335938 -9.171875 6.492188 -9.140625 6.640625 -9.078125 C 6.796875 -9.015625 6.929688 -8.925781 7.046875 -8.8125 C 7.160156 -8.695312 7.25 -8.5625 7.3125 -8.40625 C 7.375 -8.257812 7.40625 -8.101562 7.40625 -7.9375 C 7.40625 -7.625 7.285156 -7.347656 7.046875 -7.109375 C 6.796875 -6.878906 6.503906 -6.765625 6.171875 -6.765625 L 3.34375 -6.765625 L 3.34375 -4.375 C 3.34375 -3.789062 3.53125 -3.3125 3.90625 -2.9375 C 4.289062 -2.539062 4.765625 -2.34375 5.328125 -2.34375 C 5.847656 -2.34375 6.269531 -2.488281 6.59375 -2.78125 C 6.882812 -3.050781 7.195312 -3.1875 7.53125 -3.1875 C 7.664062 -3.1875 7.800781 -3.15625 7.9375 -3.09375 C 8.070312 -3.039062 8.191406 -2.960938 8.296875 -2.859375 C 8.523438 -2.628906 8.640625 -2.359375 8.640625 -2.046875 C 8.640625 -1.859375 8.597656 -1.671875 8.515625 -1.484375 C 8.441406 -1.296875 8.332031 -1.132812 8.1875 -1 C 7.8125 -0.625 7.378906 -0.34375 6.890625 -0.15625 C 6.398438 0.0195312 5.878906 0.109375 5.328125 0.109375 Z M 5.328125 0.109375 "/></g></g></g><g fill="#000000" fill-opacity="1"><g transform="translate(38.495835, 18.145163)"><g><path d="M 4.9375 0.09375 C 4.332031 0.09375 3.753906 -0.0195312 3.203125 -0.25 C 2.648438 -0.476562 2.164062 -0.800781 1.75 -1.21875 C 1.320312 -1.632812 0.988281 -2.113281 0.75 -2.65625 C 0.519531 -3.207031 0.40625 -3.785156 0.40625 -4.390625 C 0.40625 -5.003906 0.519531 -5.585938 0.75 -6.140625 C 0.988281 -6.691406 1.320312 -7.175781 1.75 -7.59375 C 2.164062 -8 2.644531 -8.316406 3.1875 -8.546875 C 3.738281 -8.785156 4.320312 -8.90625 4.9375 -8.90625 C 5.539062 -8.90625 6.113281 -8.789062 6.65625 -8.5625 C 7.207031 -8.332031 7.691406 -8.015625 8.109375 -7.609375 C 8.523438 -7.191406 8.851562 -6.710938 9.09375 -6.171875 C 9.332031 -5.628906 9.457031 -5.054688 9.46875 -4.453125 C 9.46875 -4.097656 9.351562 -3.816406 9.125 -3.609375 C 8.90625 -3.398438 8.617188 -3.296875 8.265625 -3.296875 L 3.140625 -3.296875 C 3.347656 -2.972656 3.609375 -2.71875 3.921875 -2.53125 C 4.234375 -2.351562 4.570312 -2.265625 4.9375 -2.265625 C 5.164062 -2.265625 5.351562 -2.28125 5.5 -2.3125 C 5.65625 -2.351562 5.789062 -2.410156 5.90625 -2.484375 C 6.144531 -2.628906 6.382812 -2.703125 6.625 -2.703125 C 6.957031 -2.703125 7.242188 -2.578125 7.484375 -2.328125 C 7.710938 -2.078125 7.828125 -1.78125 7.828125 -1.4375 C 7.828125 -0.988281 7.585938 -0.628906 7.109375 -0.359375 C 6.566406 -0.0546875 5.84375 0.09375 4.9375 0.09375 Z M 3.078125 -5.34375 L 6.953125 -5.34375 C 6.785156 -5.71875 6.523438 -6.015625 6.171875 -6.234375 C 5.828125 -6.453125 5.429688 -6.5625 4.984375 -6.5625 C 4.546875 -6.5625 4.160156 -6.445312 3.828125 -6.21875 C 3.492188 -6 3.242188 -5.707031 3.078125 -5.34375 Z M 3.078125 -5.34375 "/></g></g></g><g fill="#000000" fill-opacity="1"><g transform="translate(47.463801, 18.145163)"><g><path d="M 4.40625 0 C 3.976562 0 3.570312 -0.0703125 3.1875 -0.21875 C 2.800781 -0.363281 2.460938 -0.566406 2.171875 -0.828125 C 1.867188 -1.097656 1.632812 -1.414062 1.46875 -1.78125 C 1.3125 -2.15625 1.234375 -2.554688 1.234375 -2.984375 L 1.234375 -10.859375 C 1.234375 -11.203125 1.347656 -11.492188 1.578125 -11.734375 C 1.804688 -11.972656 2.082031 -12.09375 2.40625 -12.09375 C 2.570312 -12.09375 2.734375 -12.0625 2.890625 -12 C 3.046875 -11.9375 3.179688 -11.847656 3.296875 -11.734375 C 3.421875 -11.617188 3.515625 -11.484375 3.578125 -11.328125 C 3.648438 -11.179688 3.6875 -11.023438 3.6875 -10.859375 L 3.6875 -2.9375 C 3.707031 -2.582031 3.945312 -2.40625 4.40625 -2.40625 C 4.757812 -2.40625 5.046875 -2.289062 5.265625 -2.0625 C 5.492188 -1.832031 5.609375 -1.546875 5.609375 -1.203125 C 5.609375 -0.859375 5.492188 -0.570312 5.265625 -0.34375 C 5.035156 -0.113281 4.75 0 4.40625 0 Z M 4.40625 0 "/></g></g></g><g fill="#df0016" fill-opacity="1"><g transform="translate(28.113097, 9.9864)"><g><path d="M 1.71875 0.078125 C 1.414062 0.078125 1.160156 -0.0234375 0.953125 -0.234375 C 0.734375 -0.453125 0.625 -0.710938 0.625 -1.015625 C 0.625 -1.148438 0.648438 -1.285156 0.703125 -1.421875 C 0.765625 -1.554688 0.847656 -1.675781 0.953125 -1.78125 C 1.171875 -2 1.425781 -2.109375 1.71875 -2.109375 C 1.863281 -2.109375 2.003906 -2.078125 2.140625 -2.015625 C 2.273438 -1.953125 2.390625 -1.875 2.484375 -1.78125 C 2.585938 -1.675781 2.664062 -1.554688 2.71875 -1.421875 C 2.78125 -1.285156 2.8125 -1.148438 2.8125 -1.015625 C 2.8125 -0.710938 2.703125 -0.453125 2.484375 -0.234375 C 2.390625 -0.140625 2.273438 -0.0625 2.140625 0 C 2.003906 0.0507812 1.863281 0.078125 1.71875 0.078125 Z M 1.71875 0.078125 "/></g></g></g></svg>